<?xml version="1.0" encoding="UTF-8"?>
<!DOCTYPE svg PUBLIC "-//W3C//DTD SVG 1.1//EN" "http://www.w3.org/Graphics/SVG/1.1/DTD/svg11.dtd">
<!-- Creator: CorelDRAW 2017 -->
<svg xmlns="http://www.w3.org/2000/svg" xml:space="preserve" width="20.2308mm" height="10.9244mm" version="1.1" style="shape-rendering:geometricPrecision; text-rendering:geometricPrecision; image-rendering:optimizeQuality; fill-rule:evenodd; clip-rule:evenodd"
viewBox="0 0 276 149"
 xmlns:xlink="http://www.w3.org/1999/xlink">
 <defs>
  <style type="text/css">
   <![CDATA[
    .fil0 {fill:#F48120}
    .fil1 {fill:#FAAD3F}
   ]]>
  </style>
 </defs>
 <g id="Camada_x0020_1">
  <metadata id="CorelCorpID_0Corel-Layer"/>
  <path class="fil0" d="M183 113c2,-6 1,-11 -2,-14 -3,-3 -7,-6 -12,-6l-96 -1c-1,0 -1,-1 -2,-1 -1,-1 -1,-1 0,-2 1,-1 1,-2 2,-2l97 -1c12,-1 24,-10 28,-21l6 -14c0,-1 1,-1 0,-2 -6,-28 -31,-49 -61,-49 -28,0 -51,18 -60,42 -6,-4 -12,-6 -20,-6 -13,1 -24,12 -25,25 -1,3 0,7 1,10 -22,1 -39,18 -39,40 0,2 0,4 1,6 0,1 1,2 2,2l177 0c1,0 2,-1 2,-2l2 -6 0 0z"/>
  <g>
   <path class="fil1" d="M213 51l-3 0c-1,0 -1,1 -2,1l-4 13c-2,6 -1,11 2,14 3,3 7,6 12,6l20 1c1,0 1,1 2,1 1,1 1,1 0,2 -1,1 -1,2 -2,2l-21 1c-12,1 -24,10 -28,21l-1 5c-1,1 0,2 1,2l73 0c1,0 2,-1 2,-2 1,-4 2,-9 2,-14 0,-29 -24,-52 -52,-52l0 0zm0 0l0 0 0 0z"/>
  </g>
  <g>
   <path class="fil0" d="M273 132c-1,0 -2,-1 -2,-2 0,-1 1,-2 2,-2 1,0 2,1 2,2 0,1 -1,2 -2,2l0 0zm0 -4c-1,0 -2,1 -2,2 0,1 1,2 2,2 1,0 2,-1 2,-2 0,-1 -1,-2 -2,-2l0 0zm1 3l-1 0 -1 -1 -1 0 0 1 -1 0 0 -2 1 0c1,0 1,0 1,1 0,0 0,1 -1,1l1 1 0 0zm-1 -1c0,0 0,0 0,0 0,0 0,0 0,0l-1 0 0 1 1 0 0 0zm-244 -2l6 0 0 16 10 0 0 5 -16 0 0 -21zm23 11c0,-6 5,-11 12,-11 7,0 11,5 11,11 0,6 -5,11 -12,11 -7,0 -11,-5 -11,-11l0 0zm17 0c0,-3 -2,-6 -5,-6 -3,0 -5,3 -5,6 0,3 2,6 5,6 3,1 5,-2 5,-5l0 0zm13 1l0 -12 6 0 0 12c0,3 2,5 4,5 2,0 4,-1 4,-4l0 -12 6 0 0 12c0,7 -4,10 -10,10 -6,0 -10,-3 -10,-10l0 0zm29 -12l8 0c8,0 12,4 12,11 0,6 -5,11 -12,11l-8 0 0 -21 0 0zm8 16c4,0 6,-2 6,-5 0,-4 -2,-5 -6,-5l-2 0 0 11 2 0zm21 -16l17 0 0 5 -11 0 0 4 10 0 0 5 -10 0 0 8 -6 0 0 -21zm26 0l6 0 0 16 10 0 0 5 -16 0 0 -21zm32 0l6 0 9 22 -7 0 -2 -4 -8 0 -2 4 -6 0 9 -22 0 0zm5 13l-2 -6 -2 6 5 0zm17 -13l10 0c3,0 5,1 7,2 1,1 2,3 2,5 0,3 -2,5 -4,7l5 8 -7 0 -4 -7 -3 0 0 7 -6 0 0 -21zm10 10c2,0 3,-1 3,-2 0,-2 -1,-2 -3,-2l-4 0 0 5 4 0 0 0zm18 -10l17 0 0 5 -11 0 0 3 10 0 0 5 -10 0 0 3 12 0 0 5 -18 0 0 -21zm-232 13c-1,2 -3,3 -5,3 -3,0 -5,-3 -5,-6 0,-3 2,-6 5,-6 2,0 4,2 5,4l6 0c-1,-5 -5,-9 -11,-9 -7,0 -12,5 -12,11 0,6 5,11 11,11 6,0 10,-4 11,-9l-6 0z"/>
  </g>
 </g>
</svg>
