<svg xmlns="http://www.w3.org/2000/svg" xmlns:xlink="http://www.w3.org/1999/xlink" width="1024" height="258.656" viewBox="0 0 1024 258.656"><defs><linearGradient id="a" gradientUnits="userSpaceOnUse" x1="511.999" y1="204.148" x2="511.999" y2="43.266"><stop offset="0" stop-color="#FACA45"/><stop offset="1" stop-color="#FCDA6C"/></linearGradient><path id="b" d="M65.055 197.415c-15.382 0-29.772-4.465-41.625-12.912-13.143-9.156-21.583-24.148-23.166-41.16-1.636-17.6 4.36-35.19 16.048-47.128 7.27-7.718 16.355-13.735 26.245-17.607-.18-.363-.352-.73-.52-1.098-6.92-15.02-6.29-32.714 1.644-46.175l.21-.34C55.57 12.118 77 .24 99.81 0c.066 0 .45 0 .575.002 13.15.276 24.443 4.637 34.406 8.486 7.15 2.763 13.91 5.373 20.12 5.948.16.015.32.032.49.05 4.63.554 9.29.95 14.22 1.37l4.31.372c5.43.48 10.36 3.352 13.45 7.838 1.26 1.822 2.15 3.834 2.68 5.93 6.32-5.506 13.01-10.245 20.07-14.2 9.7-5.667 20.02-5.667 26.22-5.667l4.34-.02c5.54 0 10.79 2.51 14.26 6.85 3.53 4.4 4.83 10.19 3.51 15.68-2.59 10.79-6.98 20.08-11.22 29.06-2.83 5.99-5.54 11.74-7.41 17.39 7.88-8.59 17.74-15.14 28.84-18.48 4.05-1.36 8.27-2.05 12.58-2.05 7.76 0 14.85 2.23 20.98 5.09 5.12-2.56 11.22-4.83 18.11-4.83 8.44 0 16 3.37 21.86 9.75.96 1.04 1.78 2.18 2.47 3.4 4.67-3.83 9.82-6.98 15.38-9.32 5.56-2.52 11.66-3.8 18.14-3.8 1.42 0 2.82.06 4.2.17.54-2.86 1.03-5.61 1.47-8.28-2.98-3.75-4.39-8.54-3.87-13.36.61-5.58 3.74-10.56 8.5-13.53 9.21-5.74 21.64-12.33 36.14-12.33 6.75 0 13.27 1.46 19.37 4.33 6.81 3.2 10.96 10.25 10.45 17.77-1.35 19.84-5.83 38.75-10.15 57.04-1.9 8.01-3.73 15.75-5.27 23.41.15.02.3.05.45.07 4.87.75 9.22 3.43 12.08 7.44 2.86 4.01 3.98 9 3.11 13.84-3.97 22.11-24.25 36.92-52.94 38.64-.65.04-1.34.06-2.02.06-6.5 0-13.64-2.14-19.76-7.26-6.68 4.31-14.59 7.33-23.87 7.33-1.77 0-3.56-.11-5.34-.35-7.59-.7-13.31-3.91-17.66-7.79-8.47 4.77-17.97 8.23-28.59 8.23-2.72 0-5.44-.24-8.1-.7-5.9-1.1-10.47-3.48-14.04-6.5-6.44 4.22-14.23 7.31-23.53 7.31-.58 0-1.17-.02-1.75-.04-9.9-.09-18.04-4.23-24.11-10.48-9.17 7.62-20.28 11.77-31.82 11.77-15.31-.16-26.24-9.77-31.81-21.88-4.36 3.54-10.07 6.51-17.17 6.51-4.87 0-9.6-1.51-13.7-4.31-2.52 4.06-5.4 8.01-8.73 11.79-15.61 18.24-40.36 29.57-64.62 29.57zm468.287-.035c-10 0-19.65-1.837-28.682-5.456-22.444-9.307-37.285-31.8-36.458-54.916-.044-15.534 6.288-30.513 17.866-42.232 6.94-7.023 15.476-12.54 24.695-16.16-.233-.465-.458-.934-.675-1.407-6.09-13.21-6.285-28.56-.52-41.05 9.072-20.35 31-34.59 55.763-36.08l.58-.03c.57-.02 1.15-.03 1.71-.03 13.64 0 25.35 4.55 35.69 8.56 8.38 3.25 15.62 6.07 22.35 6.06.5 0 1.01-.02 1.52-.05.34-.02.68-.04 1.01-.04l.76-.01c2.85-.03 7.52-.08 9.98-.08 5.04 0 9.85 2.08 13.3 5.74 2.86 3.03 4.57 6.92 4.91 11.02 6.18-5.58 12.72-10.44 19.6-14.56 6.77-4.37 14.72-6.49 24.27-6.49 3.64 0 7.1.29 10.33.59 5.64.53 10.7 3.63 13.73 8.4.96 1.5 1.68 3.12 2.15 4.8 1.55-.56 3.13-1.02 4.74-1.38 3.08-.79 6.32-1.2 9.65-1.2 17.84 0 31.77 11.36 33.39 27.11.56 4.29.28 8.54-.78 12.6 4.87-1.78 10.2-2.99 16.02-2.99 3.53 0 7.03.46 10.42 1.36 1.65.44 3.23 1.11 4.7 1.99 1 .6 1.92 1.23 2.78 1.9 5.97-2.95 12.91-5.28 20.85-5.28.55 0 1.09.01 1.64.03.33-.01.66-.01.99-.01 7.81 0 13.97 2.91 18.73 6.26 6.77-3.44 14.6-6.3 23.78-6.3.7 0 1.41.02 2.12.05 8.33.01 16.1 2.7 22.26 7.24-1.66-6.58-1.16-13.6 1.55-20.17 4.34-10.5 13.86-18.88 24.93-22 3.82-1.23 7.82-1.86 11.91-1.86 15.8 0 29.11 9.52 33.11 23.69.27.96.46 1.93.58 2.93 1.1 9.82-2.06 19.44-8.91 27.1-.2.23-.41.45-.62.68 1.77 4.93 2.43 11.31 1.25 19.57-.08.57-.16 1.12-.23 1.64-.77 5.76-2.2 10.95-3.46 15.53-.14.5-.27 1-.41 1.5 4.25.56 8.2 2.61 11.13 5.84 3.74 4.12 5.39 9.72 4.49 15.21-4.12 25.31-29.12 37.75-52.12 38.87-.68.04-1.35.06-2.01.06-8.67 0-15.56-3.35-20.85-7.49-8.06 4.36-17.17 7.62-27.65 7.62-.51 0-1.02-.01-1.53-.03-9.29-.14-18.45-3.82-25.12-9.98-1.32 1.16-2.8 2.13-4.41 2.88-7.46 3.45-14.77 4.56-21.22 5.54-4.15.63-8.08 1.23-10.88 2.34-2.19.88-4.48 1.3-6.77 1.3-4.26 0-8.46-1.49-11.82-4.34-.79-.67-1.51-1.4-2.17-2.18-5.1 1.53-10.02 2.11-14.27 2.61-3.98.47-7.74.91-9.74 1.95-2.64 1.37-5.52 2.04-8.38 2.04-4.01 0-7.99-1.32-11.27-3.89-.39-.31-.77-.64-1.14-.97-3.31.94-6.8 1.68-10.47 2.22-1.68.26-3.63.41-5.58.41-9.61 0-19.07-3.53-25.93-9.56-3.69 2.95-7.79 5.49-12.21 7.51-.19.09-.39.17-.59.26-5.45 2.26-11.34 3.45-17.04 3.45-10.41 0-19.69-3.97-26.12-11.17-2.91-3.35-5.1-6.9-6.75-10.52-4.93 3.89-11.21 6.23-17.44 6.23-5.12 0-9.74-1.51-13.47-4.15-15.15 25.11-43.81 41.24-73.44 41.24z"/></defs><use xlink:href="#b" fill="#CEE8F7" x="25" y="36"/><use xlink:href="#b" fill="#FFF" x="25" y="25"/><path fill="url(#a)" d="M84.42 65.608c8.487-13.715 24.534-22.173 40.58-22.342 18.802.394 34.68 12.646 53.228 14.36 6.35.76 12.7 1.238 19.082 1.8-5.06 17.79-5.874 36.308-3.71 54.603 11.41-23.08 27.765-44.66 50.585-57.39 6.463-3.85 14.25-3.15 21.47-3.26-4.44 18.49-16.383 34.12-20.346 52.8-3.18 12.08-3.71 25.21 1.74 36.76 4.75-.73 9.52-1.38 14.3-2.03.59 19.81-14.19 41.59-35.35 41.53-10.51-.12-16.64-10.88-17.57-20.21-2.53-24.23 8.03-47.05 18.57-68.12-18.02 18.07-24.2 43.61-38.47 64.16-3.57 4.69-10.09 12.67-16.08 6.63-1.46-10.26.59-20.57.93-30.83.48-13.07-.14-26.14-.14-39.18-11.95 28.19-11.22 62.11-32.38 85.94-19.31 22.68-56.72 31.75-81.92 13.71-19.42-13.44-20.71-44.29-4.47-60.71 13.72-14.66 36.68-21.43 55.65-13.73-.82 7.28-10.76 14.95-4.24 21.75 8.12 7.45 20.65 1.8 26.11-6.21 13.09-18.44 18.71-41.03 31.89-59.5-9.67-2.48-19.76-3.37-29.4-.28-.17 3.2-.31 6.43-.45 9.67 4.02.87 8.06 1.77 12.08 2.66-7.2 16.02-26.05 24.25-42.94 22.59-19.56-3.46-28.41-28.86-18.78-45.22zm466.734 3.204c-7.168 15.54 1.433 36.87 18.21 41.592 17.34 3.007 36.56-5.593 45.162-21.19-4.64-3.09-17.145-2.697-11.804-10.932 7.306-8.656 19.784-3.288 29.17-2.304-12.31 18.744-18.66 40.637-31.138 59.213-5.423 8.63-19.277 14.48-27.26 6.07-5.762-7.28 3.43-13.8 6.52-19.86-28.327-14.36-68.937 8.21-68.542 40.92-.76 16.36 10.144 31.51 24.983 37.66 29.17 11.69 64.723-2.39 80.233-29.2 13.35-23.18 15.007-50.7 24.283-75.48 1.44 22.32-.08 44.63-.45 66.91.34 7.68 10.12 4.98 12.9.26 17.29-20.82 22.46-49.4 42.21-68.6-8.26 16.3-16.55 33.05-18.57 51.46-1.15 10.82-1.6 23.33 6.02 32.09 5.62 6.3 15.29 6.02 22.54 3.01 14.73-6.72 24.98-22.59 23.16-39-5.64-.42-14.64 3.46-16.18-4.66-6.88-29.71 12.4-56.1 22.03-82.74-7.84-.73-16.32-1.37-23.24 3.21-22.1 13.12-38.15 34.17-49.67 56.79-3.26-18.88 1.07-37.48 2.19-56.23-2.64 0-7.89.06-10.54.09-21.92 1.43-40.1-15.15-61.93-14.53-16.38.98-33.38 10.06-40.27 25.49zM423.088 64.4c1.264 1.235 3.82 3.765 5.087 5.03-1.547 12.195-3.992 24.252-6.802 36.225-9.357-2.754-19.615-5.62-29.03-1.236-20.853 8.65-31.503 31.84-32.065 53.45-4.89.25-9.807.73-14.697.08-1.12-17.76 8.1-34.29 8.13-51.99-7.87-8.57-18.63-.73-26.44 3.57-8.32-5.15-18.1-9.98-28.07-6.5-23.21 6.8-37.83 32.82-35.46 56.29.79 10.06 7.42 21.95 18.77 21.83 12.7.73 21.87-9.5 29.2-18.44 2.08 7.11 4.16 16.32 12.79 17.93 14.08 2.44 26.89-6.05 37.49-14.25 3.94 5.87 7.67 13.77 15.74 14.33 13.41 1.97 23.8-8.24 31.48-17.79 1.66 8.43 6.1 18.57 16.41 17.93 14.59-.87 33.11-7.2 36.06-23.63-6.57-1.02-20.79 5.51-18.29-6.3 4.56-31.39 15.66-61.74 17.82-93.53-13.26-6.24-26.67-.14-38.08 6.97zm-118.763 63.316c2.783-5.255 9.696-3.598 14.53-4.722-.62 8.01-1.182 19.278-11.27 20.823-7.812-1.347-6.857-11.128-3.26-16.1zM404.4 124.09c3.484-3.43 10.763-2.474 11.353 2.924 2.25 8.963-8.008 21.694-16.664 13.74-1.58-6.012.16-12.898 5.31-16.663zm356.766-58.68c-9.75 1.94-19.307 12.845-14.33 22.877 8.992 15.092 37.543 4.834 34.957-12.646-.785-9.63-12.786-12.42-20.627-10.23zm194.022.338c-9.778 2.56-18.352 13.883-12.618 23.663 10.596 13.72 36.703 2.7 34.79-14.36-2.667-9.44-13.768-12.16-22.172-9.3zm-166.17 46.174l5.057 5.508c-3.343 22.145-9.048 43.84-14.276 65.592 10.17-5.256 22.79-2.473 32.54-8.12 7.64-12.452 6.15-28.19 12.48-41.2 2.19-4.384 12.22-7.194 11.66.168-1.57 16.637-6.72 32.77-10.29 49.067 10-3.99 21.47-3.005 31.19-7.503 10.09-12.364 6.07-30.883 15.14-43.952 3.34-1.35 6.91-1.91 10.42-2.727-.03 12.45-4.39 24.254-5.79 36.535-.23 9.216 9.35 15.624 17.87 15.57 11.94.42 22.43-6.297 31.78-12.93 4.52 6.295 10.11 13.376 18.8 12.786 14.44-.673 32.46-7.39 35.1-23.578-5.73.365-11.47 1.18-17.2 1.096-3.4-12.98 3.62-25.658 5.34-38.415.67-5.6 2.84-14.06-4.13-16.47-11.02-4.73-22.09 3.06-31.53 8.09 6.04 15.17-2.53 30.71-4.44 45.86-5.34-.82-17.28 5.28-16.22-3.74-.23-13.35 6.74-25.77 5.98-39.15-1.24-8.35-9.95-13.15-17.82-12.99-10.29-.7-19.17 5.25-27.6 10.26-5.11-4.44-10.06-10.85-17.59-10.23-9.98-.73-18.38 5.48-26.33 10.54-2.73-3.29-4.58-7.59-8.32-9.84-11.66-3.12-22.29 4.21-31.87 9.75zm-51.937.084c1.52 2.586 3.04 5.172 4.59 7.784-2.81 15.092-7.73 29.873-8.85 45.247-.7 10.96 11.98 17.03 21.47 15.54 13.27-1.94 29.17-8.486 31.03-23.663-5.34.478-10.62 1.35-15.99 1.463-7.76-16.92 11.21-36.254 3.01-53.172-11.29-8.515-24.89 1.293-35.24 6.8z"/></svg>