<?xml version="1.0" encoding="UTF-8"?>
<!DOCTYPE svg PUBLIC "-//W3C//DTD SVG 1.1//EN" "http://www.w3.org/Graphics/SVG/1.1/DTD/svg11.dtd">
<!-- Creator: CorelDRAW 2017 -->
<svg xmlns="http://www.w3.org/2000/svg" xml:space="preserve" width="16.0056mm" height="16.0056mm" version="1.1" style="shape-rendering:geometricPrecision; text-rendering:geometricPrecision; image-rendering:optimizeQuality; fill-rule:evenodd; clip-rule:evenodd"
viewBox="0 0 495 495"
 xmlns:xlink="http://www.w3.org/1999/xlink">
 <defs>
  <style type="text/css">
   <![CDATA[
    .fil0 {fill:#DD4814}
    .fil1 {fill:white}
   ]]>
  </style>
 </defs>
 <g id="Camada_x0020_1">
  <metadata id="CorelCorpID_0Corel-Layer"/>
  <path class="fil0" d="M248 0c137,0 248,111 248,248 0,137 -111,248 -248,248 -137,0 -248,-111 -248,-248 0,-137 111,-248 248,-248z"/>
  <path class="fil1" d="M79 215c-18,0 -33,15 -33,33 0,18 15,33 33,33 18,0 33,-15 33,-33 0,-18 -15,-33 -33,-33zm236 150c-16,9 -21,29 -12,45 9,16 29,21 45,12 16,-9 21,-29 12,-45 -9,-16 -29,-21 -45,-12l0 0 0 0zm-164 -117c0,-33 16,-62 41,-79l-24 -40c-29,19 -50,49 -59,84 10,9 17,21 17,36 0,15 -7,27 -17,36 9,35 30,64 59,84l24 -40c-25,-17 -41,-46 -41,-79l0 0 0 0 0 0zm97 -97c50,0 92,39 96,88l47 -1c-2,-36 -18,-69 -43,-93 -13,5 -27,4 -40,-3 -13,-7 -20,-19 -23,-33 -12,-3 -25,-5 -38,-5 -23,0 -44,5 -64,15l23 41c12,-6 26,-9 41,-9l0 0 0 0zm0 193c-15,0 -28,-3 -41,-9l-23 41c19,10 41,15 64,15 13,0 26,-2 38,-5 2,-13 10,-26 23,-33 13,-7 27,-8 40,-3 24,-24 40,-57 43,-93l-47 -1c-4,49 -46,88 -96,88l0 0zm68 -214c16,9 36,4 45,-12 9,-16 4,-36 -12,-45 -16,-9 -36,-4 -45,12 -9,16 -4,36 12,45l0 0z"/>
 </g>
</svg>
