<?xml version="1.0" standalone="no"?>
<!DOCTYPE svg PUBLIC "-//W3C//DTD SVG 20010904//EN"
 "http://www.w3.org/TR/2001/REC-SVG-20010904/DTD/svg10.dtd">
<svg version="1.0" xmlns="http://www.w3.org/2000/svg"
 width="265.000000pt" height="265.000000pt" viewBox="0 0 265.000000 265.000000"
 preserveAspectRatio="xMidYMid meet">
<metadata>
Created by potrace 1.11, written by Peter Selinger 2001-2013
</metadata>
<g transform="translate(0.000000,265.000000) scale(0.100000,-0.100000)"
fill="#000000" stroke="none">
<path d="M80 2613 c-19 -7 -36 -13 -38 -13 -2 0 -11 -17 -20 -38 -16 -35 -17
-129 -16 -1242 0 -1081 2 -1208 16 -1235 33 -63 -47 -59 1303 -59 1233 -1
1234 -1 1262 20 15 12 34 32 40 45 18 35 18 2433 0 2468 -6 13 -25 33 -40 45
-28 20 -31 20 -1249 21 -945 0 -1230 -3 -1258 -12z"/>
</g>
</svg>
